<svg width="512" height="512" viewBox="0 0 512 512" fill="none" xmlns="http://www.w3.org/2000/svg">
<path fill-rule="evenodd" clip-rule="evenodd" d="M216.136 436.972H95.2768C93.904 436.972 92.5951 436.698 91.4014 436.203L74.9192 475.95C81.246 478.573 88.1491 480 95.2768 480H216.136V436.972ZM75.7965 420.599L36.0502 437.081C33.4265 430.754 32 423.851 32 416.723V295.864H75.0282V416.723C75.0282 418.096 75.3015 419.405 75.7965 420.599ZM295.864 436.972V480H416.723C423.851 480 430.754 478.573 437.081 475.95L420.599 436.203C419.405 436.698 418.096 436.972 416.723 436.972H295.864ZM436.203 420.599L475.95 437.081C478.573 430.754 480 423.851 480 416.723V295.864H436.972V416.723C436.972 418.096 436.699 419.405 436.203 420.599ZM436.972 216.136H480V95.2768C480 88.1491 478.573 81.2461 475.95 74.9193L436.203 91.4014C436.698 92.5951 436.972 93.9041 436.972 95.2768V216.136ZM420.599 75.7965L437.081 36.0502C430.754 33.4266 423.851 32 416.723 32H295.864V75.0282H416.723C418.096 75.0282 419.405 75.3015 420.599 75.7965ZM216.136 75.0282V32H95.2768C88.1491 32 81.2461 33.4265 74.9193 36.0502L91.4014 75.7965C92.5951 75.3015 93.9041 75.0282 95.2768 75.0282H216.136ZM75.7965 91.4014L36.0502 74.9192C33.4266 81.246 32 88.1491 32 95.2768V216.136H75.0282V95.2768C75.0282 93.9041 75.3015 92.5951 75.7965 91.4014Z" fill="url(#paint0_linear_288_39)"/>
<path d="M109 347V165H296.353C375.906 165 396.659 174.384 396.659 210.5C396.659 238.653 376.194 249.459 317.106 252.019V254.578H323.447C385.706 254.578 403 264.247 403 298.372C403 335.909 380.806 347 305 347H109ZM211.612 300.931H289.147V273.631H211.612V300.931ZM211.612 239.791H285.688V217.609H211.612V239.791Z" fill="url(#paint1_linear_288_39)"/>
<defs>
<linearGradient id="paint0_linear_288_39" x1="295.908" y1="666.667" x2="548.23" y2="83.4942" gradientUnits="userSpaceOnUse">
<stop stop-color="#BF211E"/>
<stop offset="1" stop-color="#D29B31"/>
</linearGradient>
<linearGradient id="paint1_linear_288_39" x1="256" y1="417" x2="402.363" y2="147.154" gradientUnits="userSpaceOnUse">
<stop stop-color="#BF211E"/>
<stop offset="1" stop-color="#D29B31"/>
</linearGradient>
</defs>
</svg>
